<svg xmlns="http://www.w3.org/2000/svg" viewBox="0 0 48 48" width="96" height="96" fill="none">
  <path fill-rule="evenodd" clip-rule="evenodd" d="M8.60917 36.9866C5.3218 33.3783 3.32191 28.6146 3.32191 23.3914C3.32191 12.1271 12.6184 2.99568 24.0861 2.99568C35.5539 2.99568 44.8504 12.1271 44.8504 23.3914C44.8504 31.3561 40.2009 38.2516 33.4239 41.6092C29.2775 43.771 24.5472 44.9957 19.5258 44.9957C13.3731 44.9957 7.65739 43.157 2.91748 40.0088C2.91748 40.0088 6.09606 39.6621 8.60835 36.9874L8.60917 36.9866ZM33.8397 33.4855C39.2117 28.1137 39.2117 19.4042 33.8397 14.0322C31.3487 11.5414 28.1401 10.2063 24.8794 10.0256V10.0248C24.781 7.57835 26.0979 5.92616 26.1043 5.91811L26.1036 5.91824L26.1045 5.9171C22.3569 6.64104 18.7783 8.45409 15.8764 11.356C13.6509 13.5814 12.0663 16.205 11.1216 18.9972C11.2591 18.6329 11.4124 18.2733 11.5814 17.9193C11.3865 18.4167 11.2103 18.925 11.051 19.445C9.47775 24.2209 10.5882 29.6873 14.3864 33.4855C19.7584 38.8575 28.4679 38.8575 33.8397 33.4855Z" fill="#1D4ED8"/>
  <rect x="16.687" y="19.27" width="5" height="9" rx="2.5" fill="#1F4ED8"/>
  <rect x="26.87" y="19.27" width="5" height="9" rx="2.5" fill="#1F4ED8"/>
</svg>
